<svg width="36" height="42" viewBox="0 0 36 42" fill="none" xmlns="http://www.w3.org/2000/svg">
<g id="Instagram" clip-path="url(#clip0_99_926)">
<path id="Vector" d="M18 0.322266C13.1152 0.322266 12.501 0.348198 10.5817 0.44674C8.6625 0.550469 7.35525 0.89796 6.21 1.41142C5.00815 1.93091 3.91982 2.74796 3.02175 3.80496C2.10465 4.84002 1.39573 6.09437 0.945 7.47955C0.4995 8.79691 0.19575 10.3062 0.108 12.5104C0.0225 14.7276 0 15.433 0 21.0706C0 26.7031 0.0225 27.4085 0.108 29.6205C0.198 31.8299 0.4995 33.3366 0.945 34.6565C1.40625 36.0205 2.0205 37.1771 3.02175 38.3311C4.02075 39.4851 5.02425 40.1956 6.20775 40.7246C7.35525 41.2381 8.66025 41.5882 10.5773 41.6893C12.4988 41.7879 13.1108 41.8138 18 41.8138C22.8892 41.8138 23.499 41.7879 25.4205 41.6893C27.3353 41.5856 28.647 41.2381 29.7922 40.7246C30.9933 40.2048 32.0808 39.3878 32.9782 38.3311C33.9795 37.1771 34.5938 36.0205 35.055 34.6565C35.4982 33.3366 35.802 31.8299 35.892 29.6205C35.9775 27.4085 36 26.7031 36 21.068C36 15.433 35.9775 14.7276 35.892 12.513C35.802 10.3062 35.4982 8.79691 35.055 7.47955C34.6043 6.09437 33.8954 4.84002 32.9782 3.80496C32.0802 2.74796 30.9918 1.93091 29.79 1.41142C28.6425 0.89796 27.333 0.547876 25.4182 0.44674C23.4967 0.348198 22.887 0.322266 17.9955 0.322266H18ZM16.3867 4.06169H18.0023C22.8083 4.06169 23.3775 4.07984 25.2743 4.18098C27.0292 4.27174 27.9832 4.61145 28.6178 4.89411C29.457 5.27013 30.0578 5.72135 30.6877 6.44745C31.3177 7.17355 31.707 7.86335 32.0333 8.83321C32.2808 9.56191 32.5732 10.6614 32.652 12.6841C32.7397 14.8702 32.7578 15.5263 32.7578 21.0628C32.7578 26.5994 32.7397 27.258 32.652 29.4441C32.5732 31.4668 32.2785 32.5638 32.0333 33.2951C31.7426 34.1947 31.2823 35.0086 30.6855 35.6782C30.0555 36.4043 29.457 36.853 28.6155 37.229C27.9855 37.5142 27.0315 37.8513 25.2743 37.9447C23.3775 38.0432 22.8083 38.0666 18.0023 38.0666C13.1963 38.0666 12.6248 38.0432 10.728 37.9447C8.973 37.8513 8.02125 37.5142 7.38675 37.229C6.60562 36.8951 5.8986 36.3654 5.31675 35.6782C4.71887 35.0081 4.25774 34.1932 3.96675 33.2925C3.7215 32.5638 3.42675 31.4642 3.348 29.4415C3.2625 27.2555 3.2445 26.5994 3.2445 21.0577C3.2445 15.5159 3.2625 14.865 3.348 12.679C3.429 10.6562 3.7215 9.55672 3.969 8.82543C4.29525 7.85816 4.68675 7.16577 5.31675 6.43967C5.94675 5.71357 6.54525 5.26494 7.38675 4.88893C8.02125 4.60367 8.973 4.26655 10.728 4.1732C12.3885 4.08503 13.032 4.0591 16.3867 4.0565V4.06169ZM27.6097 7.50549C27.3261 7.50549 27.0452 7.56988 26.7832 7.69499C26.5211 7.8201 26.283 8.00347 26.0824 8.23464C25.8818 8.46581 25.7227 8.74025 25.6142 9.04229C25.5056 9.34433 25.4497 9.66805 25.4497 9.99498C25.4497 10.3219 25.5056 10.6456 25.6142 10.9477C25.7227 11.2497 25.8818 11.5241 26.0824 11.7553C26.283 11.9865 26.5211 12.1699 26.7832 12.295C27.0452 12.4201 27.3261 12.4845 27.6097 12.4845C28.1826 12.4845 28.732 12.2222 29.1371 11.7553C29.5422 11.2884 29.7698 10.6552 29.7698 9.99498C29.7698 9.33472 29.5422 8.70151 29.1371 8.23464C28.732 7.76777 28.1826 7.50549 27.6097 7.50549ZM18.0023 10.4151C16.7762 10.393 15.5585 10.6523 14.4202 11.1779C13.2819 11.7034 12.2457 12.4847 11.3718 13.4762C10.498 14.4677 9.80407 15.6497 9.33039 16.9533C8.85672 18.2569 8.61278 19.656 8.61278 21.0693C8.61278 22.4826 8.85672 23.8818 9.33039 25.1854C9.80407 26.489 10.498 27.6709 11.3718 28.6625C12.2457 29.654 13.2819 30.4353 14.4202 30.9608C15.5585 31.4863 16.7762 31.7456 18.0023 31.7236C20.429 31.6799 22.7435 30.5382 24.4462 28.5449C26.1489 26.5516 27.1033 23.8666 27.1033 21.0693C27.1033 18.2721 26.1489 15.587 24.4462 13.5937C22.7435 11.6004 20.429 10.4587 18.0023 10.4151ZM18.0023 14.1519C18.7903 14.1519 19.5706 14.3308 20.2986 14.6784C21.0267 15.0259 21.6882 15.5354 22.2454 16.1776C22.8026 16.8198 23.2447 17.5822 23.5462 18.4213C23.8478 19.2604 24.003 20.1598 24.003 21.068C24.003 21.9763 23.8478 22.8756 23.5462 23.7147C23.2447 24.5538 22.8026 25.3162 22.2454 25.9585C21.6882 26.6007 21.0267 27.1101 20.2986 27.4577C19.5706 27.8053 18.7903 27.9841 18.0023 27.9841C16.4108 27.9841 14.8844 27.2555 13.7591 25.9585C12.6337 24.6614 12.0015 22.9023 12.0015 21.068C12.0015 19.2338 12.6337 17.4746 13.7591 16.1776C14.8844 14.8806 16.4108 14.1519 18.0023 14.1519Z" fill="white"/>
</g>
<defs>
<clipPath id="clip0_99_926">
<rect width="36" height="41.4915" fill="white" transform="translate(0 0.322266)"/>
</clipPath>
</defs>
</svg>
