<svg width="36" height="42" viewBox="0 0 36 42" fill="none" xmlns="http://www.w3.org/2000/svg">
<g id="Linkedin" clip-path="url(#clip0_99_922)">
<path id="Vector" d="M0 3.2941C0 1.65259 1.1835 0.322266 2.64375 0.322266H33.3563C34.8165 0.322266 36 1.65259 36 3.2941V38.842C36 40.4835 34.8165 41.8138 33.3563 41.8138H2.64375C1.1835 41.8138 0 40.4835 0 38.842V3.2941ZM11.1217 35.0559V16.3198H5.7195V35.0559H11.1217ZM8.42175 13.7603C10.305 13.7603 11.4772 12.3237 11.4772 10.524C11.4435 8.6854 10.3073 7.28766 8.45775 7.28766C6.60825 7.28766 5.4 8.68799 5.4 10.524C5.4 12.3237 6.57225 13.7603 8.38575 13.7603H8.42175ZM19.4648 35.0559V24.5922C19.4648 24.0321 19.5007 23.4719 19.6448 23.0726C20.034 21.9549 20.9228 20.7957 22.4167 20.7957C24.372 20.7957 25.1528 22.5125 25.1528 25.0331V35.0559H30.555V24.3096C30.555 18.5526 27.891 15.8764 24.336 15.8764C21.4695 15.8764 20.1847 17.6917 19.4648 18.9701V19.0349H19.4288L19.4648 18.9701V16.3198H14.0647C14.1322 18.078 14.0647 35.0559 14.0647 35.0559H19.4648Z" fill="white"/>
</g>
<defs>
<clipPath id="clip0_99_922">
<rect width="36" height="41.4915" fill="white" transform="translate(0 0.322266)"/>
</clipPath>
</defs>
</svg>
