<svg width="36" height="42" viewBox="0 0 36 42" fill="none" xmlns="http://www.w3.org/2000/svg">
<g id="Twitter" clip-path="url(#clip0_99_924)">
<path id="Vector" d="M11.3085 39.2205C24.894 39.2205 32.3257 26.2466 32.3257 15.0154C32.3288 14.6506 32.3242 14.2858 32.3122 13.921C33.7587 12.7132 35.0073 11.2188 36 9.50738C34.648 10.1927 33.2159 10.6453 31.7498 10.8507C33.2946 9.78669 34.4516 8.11226 35.0055 6.13879C33.5549 7.13127 31.9662 7.827 30.3097 8.19521C29.1964 6.82864 27.7232 5.92334 26.1182 5.61951C24.5132 5.31569 22.8661 5.63031 21.432 6.51464C19.9979 7.39897 18.8568 8.80365 18.1855 10.5111C17.5142 12.2186 17.3502 14.1335 17.7188 15.9593C14.7818 15.7904 11.9085 14.9114 9.28536 13.3795C6.66228 11.8475 4.34807 9.69689 2.493 7.06716C1.55156 8.94243 1.26439 11.1603 1.68977 13.2706C2.11514 15.381 3.2212 17.2258 4.7835 18.4307C3.61217 18.387 2.46643 18.0245 1.44 17.3726V17.4893C1.44286 19.4534 2.03359 21.3561 3.11248 22.8764C4.19136 24.3968 5.69232 25.4415 7.362 25.8343C6.72811 26.0357 6.07327 26.136 5.41575 26.1325C4.95207 26.1381 4.48912 26.0885 4.03425 25.9847C4.50538 27.6763 5.42425 29.1553 6.66188 30.2143C7.89951 31.2733 9.39379 31.8591 10.935 31.8895C8.31623 34.257 5.0833 35.5419 1.755 35.5381C1.16842 35.5432 0.582179 35.5042 0 35.4214C3.3782 37.9044 7.30185 39.2225 11.3085 39.2205Z" fill="white"/>
</g>
<defs>
<clipPath id="clip0_99_924">
<rect width="36" height="41.4915" fill="white" transform="translate(0 0.322266)"/>
</clipPath>
</defs>
</svg>
