<svg xmlns="http://www.w3.org/2000/svg" xmlns:xlink="http://www.w3.org/1999/xlink" viewBox="0,0,256,256" width="256px" height="256px" fill-rule="nonzero"><g fill="#ff6600" fill-rule="nonzero" stroke="none" stroke-width="1" stroke-linecap="butt" stroke-linejoin="miter" stroke-miterlimit="10" stroke-dasharray="" stroke-dashoffset="0" font-family="none" font-weight="none" font-size="none" text-anchor="none" style="mix-blend-mode: normal"><g transform="scale(3.55556,3.55556)"><path d="M58.13281,9.70508c-0.559,0.03925 -1.12722,0.29323 -1.57422,0.74023l-1.87305,1.85156l4.9707,4.99609l1.83984,-1.88477c0.919,-0.967 0.99027,-2.29684 0.07227,-3.21484l-1.91602,-1.93945c-0.411,-0.411 -0.96053,-0.58808 -1.51953,-0.54883zM19,11c-4.411,0 -8,3.589 -8,8v34c0,4.411 3.589,8 8,8h34c4.411,0 8,-3.589 8,-8v-31.2793l-20.74805,20.75l-6.61133,1.59961c-0.428,0.128 -0.87227,0.19141 -1.32227,0.19141c-1.602,0 -3.09042,-0.81092 -3.98242,-2.16992c-0.794,-1.209 -0.98883,-2.6863 -0.54883,-4.0293l1.70313,-6.375l20.66016,-20.6875zM52.82031,13.98633l-19.74219,19.76953l-1.4668,5.49609c-0.242,0.555 0.38541,1.1838 0.94141,0.9668l5.66406,-1.37109l19.74414,-19.74414z"></path></g></g></svg>