<svg width="295" height="47" viewBox="0 0 295 47" fill="none" xmlns="http://www.w3.org/2000/svg">
<path d="M0.872 10.6532C0.872 4.50922 5.96 0.237218 13.352 0.237218C20.456 0.237218 24.968 4.17322 25.16 10.5092H19.016C18.872 7.48522 16.712 5.70922 13.256 5.70922C9.464 5.70922 7.016 7.53322 7.016 10.4612C7.016 12.9572 8.36 14.3492 11.288 15.0212L16.808 16.2212C22.808 17.5172 25.736 20.5892 25.736 25.8212C25.736 32.3492 20.648 36.5732 12.92 36.5732C5.432 36.5732 0.536 32.5892 0.392 26.3012H6.536C6.584 29.2772 8.984 31.0532 12.92 31.0532C17 31.0532 19.592 29.2772 19.592 26.3492C19.592 23.9972 18.392 22.6052 15.512 21.9812L9.944 20.7332C3.992 19.4372 0.872 16.0292 0.872 10.6532ZM29.0383 23.8052C29.0383 16.3652 33.4543 11.5172 40.1263 11.5172C43.7263 11.5172 46.8463 13.1012 48.2863 15.8372L48.6703 12.2372H54.0463V46.9412H48.2383V32.7812C46.7503 35.1812 43.6303 36.5732 40.1263 36.5732C33.0703 36.5732 29.0383 31.1972 29.0383 23.8052ZM34.8943 24.0932C34.8943 28.3172 37.3903 31.2932 41.4703 31.2932C45.5503 31.2932 48.1903 28.3652 48.1903 24.0932C48.1903 19.8212 45.5503 16.8452 41.4703 16.8452C37.3903 16.8452 34.8943 19.8692 34.8943 24.0932ZM76.229 12.2372H82.085V35.9492H76.661L76.229 32.7812C74.789 35.0372 71.717 36.5732 68.549 36.5732C63.077 36.5732 59.861 32.8772 59.861 27.0692V12.2372H65.717V25.0052C65.717 29.5172 67.493 31.3412 70.757 31.3412C74.453 31.3412 76.229 29.1812 76.229 24.6692V12.2372ZM91.0614 7.48522C89.0454 7.48522 87.4614 5.90122 87.4614 3.93322C87.4614 1.96522 89.0454 0.429218 91.0614 0.429218C92.9814 0.429218 94.5654 1.96522 94.5654 3.93322C94.5654 5.90122 92.9814 7.48522 91.0614 7.48522ZM88.1334 35.9492V12.2372H93.9894V35.9492H88.1334ZM114.92 12.1412V17.5652H112.76C108.536 17.5652 105.896 19.8212 105.896 24.4292V35.9492H100.04V12.2852H105.56L105.896 15.7412C106.904 13.3892 109.16 11.8052 112.328 11.8052C113.144 11.8052 113.96 11.9012 114.92 12.1412ZM133.763 12.1412V17.5652H131.603C127.379 17.5652 124.739 19.8212 124.739 24.4292V35.9492H118.883V12.2852H124.403L124.739 15.7412C125.747 13.3892 128.003 11.8052 131.171 11.8052C131.987 11.8052 132.803 11.9012 133.763 12.1412ZM147.538 36.5732C140.482 36.5732 135.538 31.4372 135.538 24.0932C135.538 16.6532 140.386 11.5172 147.346 11.5172C154.45 11.5172 158.962 16.2692 158.962 23.6612V25.4372L141.106 25.4852C141.538 29.6612 143.746 31.7732 147.634 31.7732C150.85 31.7732 152.962 30.5252 153.634 28.2692H159.058C158.05 33.4532 153.73 36.5732 147.538 36.5732ZM147.394 16.3172C143.938 16.3172 141.826 18.1892 141.25 21.7412H153.154C153.154 18.4772 150.898 16.3172 147.394 16.3172ZM169.553 35.9492H163.745V0.237218H169.553V35.9492ZM203.369 23.8532H195.641V35.9492H189.497V0.861218H203.369C210.425 0.861218 214.985 5.46922 214.985 12.3332C214.985 19.1012 210.377 23.8532 203.369 23.8532ZM202.169 6.33322H195.641V18.3812H202.073C206.297 18.3812 208.553 16.1252 208.553 12.2852C208.553 8.44522 206.249 6.33322 202.169 6.33322ZM222.218 7.48522C220.202 7.48522 218.618 5.90122 218.618 3.93322C218.618 1.96522 220.202 0.429218 222.218 0.429218C224.138 0.429218 225.722 1.96522 225.722 3.93322C225.722 5.90122 224.138 7.48522 222.218 7.48522ZM219.29 35.9492V12.2372H225.146V35.9492H219.29ZM237.1 35.9492H231.292V0.237218H237.1V35.9492ZM241.851 24.0452C241.851 16.6532 247.179 11.5652 254.523 11.5652C261.867 11.5652 267.195 16.6532 267.195 24.0452C267.195 31.4372 261.867 36.5252 254.523 36.5252C247.179 36.5252 241.851 31.4372 241.851 24.0452ZM247.707 24.0452C247.707 28.3652 250.491 31.2932 254.523 31.2932C258.555 31.2932 261.339 28.3652 261.339 24.0452C261.339 19.7252 258.555 16.7972 254.523 16.7972C250.491 16.7972 247.707 19.7252 247.707 24.0452ZM279.666 35.9492H273.81V17.1332H269.25V12.2372H273.81V4.84522H279.666V12.2372H284.274V17.1332H279.666V35.9492Z" fill="white"/>
<path d="M290.398 36.5252C288.286 36.5252 286.51 34.7972 286.51 32.7332C286.51 30.6212 288.286 28.8932 290.398 28.8932C292.51 28.8932 294.286 30.6212 294.286 32.7332C294.286 34.7972 292.51 36.5252 290.398 36.5252Z" fill="#0077FF"/>
</svg>
