<svg width="221" height="36" viewBox="0 0 221 36" fill="none" xmlns="http://www.w3.org/2000/svg">
<path d="M0.404 8.028C0.404 3.42 4.22 0.215999 9.764 0.215999C15.092 0.215999 18.476 3.168 18.62 7.92H14.012C13.904 5.652 12.284 4.32 9.692 4.32C6.848 4.32 5.012 5.688 5.012 7.884C5.012 9.756 6.02 10.8 8.216 11.304L12.356 12.204C16.856 13.176 19.052 15.48 19.052 19.404C19.052 24.3 15.236 27.468 9.44 27.468C3.824 27.468 0.152 24.48 0.044 19.764H4.652C4.688 21.996 6.488 23.328 9.44 23.328C12.5 23.328 14.444 21.996 14.444 19.8C14.444 18.036 13.544 16.992 11.384 16.524L7.208 15.588C2.744 14.616 0.404 12.06 0.404 8.028ZM21.5287 17.892C21.5287 12.312 24.8407 8.676 29.8447 8.676C32.5447 8.676 34.8847 9.864 35.9647 11.916L36.2527 9.216H40.2847V35.244H35.9287V24.624C34.8127 26.424 32.4727 27.468 29.8447 27.468C24.5527 27.468 21.5287 23.436 21.5287 17.892ZM25.9207 18.108C25.9207 21.276 27.7927 23.508 30.8527 23.508C33.9127 23.508 35.8927 21.312 35.8927 18.108C35.8927 14.904 33.9127 12.672 30.8527 12.672C27.7927 12.672 25.9207 14.94 25.9207 18.108ZM56.9218 9.216H61.3138V27H57.2458L56.9218 24.624C55.8418 26.316 53.5378 27.468 51.1618 27.468C47.0578 27.468 44.6458 24.696 44.6458 20.34V9.216H49.0378V18.792C49.0378 22.176 50.3698 23.544 52.8178 23.544C55.5898 23.544 56.9218 21.924 56.9218 18.54V9.216ZM68.046 5.652C66.534 5.652 65.346 4.464 65.346 2.988C65.346 1.512 66.534 0.36 68.046 0.36C69.486 0.36 70.674 1.512 70.674 2.988C70.674 4.464 69.486 5.652 68.046 5.652ZM65.85 27V9.216H70.242V27H65.85ZM85.9397 9.144V13.212H84.3197C81.1517 13.212 79.1717 14.904 79.1717 18.36V27H74.7797V9.252H78.9197L79.1717 11.844C79.9277 10.08 81.6197 8.892 83.9957 8.892C84.6077 8.892 85.2197 8.964 85.9397 9.144ZM100.073 9.144V13.212H98.4525C95.2845 13.212 93.3045 14.904 93.3045 18.36V27H88.9125V9.252H93.0525L93.3045 11.844C94.0605 10.08 95.7525 8.892 98.1285 8.892C98.7405 8.892 99.3525 8.964 100.073 9.144ZM110.404 27.468C105.112 27.468 101.404 23.616 101.404 18.108C101.404 12.528 105.04 8.676 110.26 8.676C115.588 8.676 118.972 12.24 118.972 17.784V19.116L105.58 19.152C105.904 22.284 107.56 23.868 110.476 23.868C112.888 23.868 114.472 22.932 114.976 21.24H119.044C118.288 25.128 115.048 27.468 110.404 27.468ZM110.296 12.276C107.704 12.276 106.12 13.68 105.688 16.344H114.616C114.616 13.896 112.924 12.276 110.296 12.276ZM126.915 27H122.559V0.215999H126.915V27ZM152.277 17.928H146.481V27H141.873V0.684H152.277C157.569 0.684 160.989 4.14 160.989 9.288C160.989 14.364 157.533 17.928 152.277 17.928ZM151.377 4.788H146.481V13.824H151.305C154.473 13.824 156.165 12.132 156.165 9.252C156.165 6.372 154.437 4.788 151.377 4.788ZM166.413 5.652C164.901 5.652 163.713 4.464 163.713 2.988C163.713 1.512 164.901 0.36 166.413 0.36C167.853 0.36 169.041 1.512 169.041 2.988C169.041 4.464 167.853 5.652 166.413 5.652ZM164.217 27V9.216H168.609V27H164.217ZM177.575 27H173.219V0.215999H177.575V27ZM181.138 18.072C181.138 12.528 185.134 8.712 190.642 8.712C196.15 8.712 200.146 12.528 200.146 18.072C200.146 23.616 196.15 27.432 190.642 27.432C185.134 27.432 181.138 23.616 181.138 18.072ZM185.53 18.072C185.53 21.312 187.618 23.508 190.642 23.508C193.666 23.508 195.754 21.312 195.754 18.072C195.754 14.832 193.666 12.636 190.642 12.636C187.618 12.636 185.53 14.832 185.53 18.072ZM209.5 27H205.108V12.888H201.688V9.216H205.108V3.672H209.5V9.216H212.956V12.888H209.5V27Z" fill="#333333"/>
<path d="M217.548 27.432C215.964 27.432 214.632 26.136 214.632 24.588C214.632 23.004 215.964 21.708 217.548 21.708C219.132 21.708 220.464 23.004 220.464 24.588C220.464 26.136 219.132 27.432 217.548 27.432Z" fill="#0077FF"/>
</svg>
